<svg version="1" xmlns="http://www.w3.org/2000/svg" width="620" height="620" viewBox="0 0 465.000000 465.000000"><path d="M207.5 15.2c-13.2 7.7-32.8 19.1-43.5 25.2-37.2 21.5-60.5 34.9-63.2 36.5-2.3 1.3-12.3 7.1-41.7 24.1-1.4.8-8.2 4.7-15.1 8.7l-12.5 7.2.1 115.6c0 68.3.4 115.9 1 116.4 1 1 18.4 11.1 66.9 39.1 16.5 9.5 35.6 20.5 42.5 24.5 6.9 4 27.1 15.7 45 26s34.5 19.9 37 21.3c2.5 1.4 5.4 3.1 6.4 3.8 2.3 1.6 0 2.7 34.9-17.5 51.8-30 73-42.3 76.6-44.3 9.7-5.4 70.2-40.4 74.2-42.9 2.5-1.6 4.9-2.9 5.2-2.9.3 0 3.2-1.7 6.4-3.8l5.9-3.7-.1-115.8V116.8l-11.8-6.9c-6.5-3.8-13.7-8-16-9.3-2.3-1.2-21-12-41.6-24C343.6 64.7 326.3 55 325.9 55c-.5 0-.9-.5-.9-1 0-.6-.5-1-1-1-.6 0-6.5-3.2-13.3-7.1-6.7-4-13.8-8.1-15.7-9.1-1.9-1.1-16.6-9.6-32.6-18.9-16-9.3-29.5-16.9-30-16.8-.5.1-11.7 6.4-24.9 14.1zm131.3 116.9l.3 11.6h-12.8c-7 .1-13.4.2-14 .2-1 .1-1.3 6.3-1.3 27.6V199h-23.8v-25.8c0-14.1-.1-26.6-.1-27.7-.1-1.9-.7-2-12.6-1.9l-12.5.2V120.5h76.5l.3 11.6zM219 123c0 .5 1.1 3.3 2.4 6.2 1.3 2.9 8.7 19.9 16.4 37.8 26.7 62.1 29.1 67.7 43.2 100.5 15.3 35.7 16.6 38.6 18.5 42.7l1.3 2.8-4.1.1c-11.9.2-32.9 0-33.1-.3-.1-.2-4-9-8.6-19.6l-8.4-19.2-29.9.2-30 .3-8.1 18.7c-4.5 10.3-8.4 18.9-8.7 19.3-.7.6-35.9.9-36.4.3-.1-.2 1-3 2.5-6.3 1.6-3.3 6-13.4 10-22.5s8-18.3 9-20.5c1-2.2 2.5-5.6 3.3-7.5.9-1.9 5.2-11.8 9.7-22 10.1-22.9 10.2-23 13.9-31.3 1.7-3.8 3.1-7 3.1-7.2 0-.2 1.6-3.7 3.4-7.8 1.9-4.1 4.6-10.1 5.9-13.3 1.4-3.3 6.4-14.7 11.2-25.4 4.7-10.7 9.4-21.4 10.3-23.7 1.4-3.7 3.2-4.9 3.2-2.3z"/><path d="M216.2 205.7c-.6 1.6-4.2 10.4-8.1 19.8-3.9 9.3-7.1 17.2-7.1 17.5 0 .3 7.3.5 16.3.5 13.6-.1 16.2-.3 15.9-1.6-.2-1.4-6.2-16.6-8.7-22.4-.7-1.7-2.5-6-4-9.8-1.5-3.7-2.8-6.7-3-6.7-.2 0-.8 1.2-1.3 2.7z"/></svg>